<svg width="18" height="15" viewBox="0 0 18 15" fill="none" xmlns="http://www.w3.org/2000/svg">
<path fill-rule="evenodd" clip-rule="evenodd" d="M9.80896 3.1095C9.80896 2.29327 10.4573 1.65273 11.2312 1.65273C12.0051 1.65273 12.6534 2.29327 12.6534 3.1095C12.6534 3.92572 12.0051 4.56626 11.2312 4.56626C10.4573 4.56626 9.80896 3.92572 9.80896 3.1095ZM8.29127 3.81997L1.72003 3.81989C1.27821 3.81988 0.920039 3.46171 0.920044 3.01988C0.920049 2.57805 1.27823 2.21988 1.72005 2.21989L8.33925 2.21997C8.71469 0.971316 9.86006 0.0527344 11.2312 0.0527344C12.6021 0.0527344 13.7473 0.970986 14.1229 2.2193L16.2978 2.2191C16.7396 2.21906 17.0978 2.5772 17.0978 3.01902C17.0979 3.46085 16.7397 3.81906 16.2979 3.8191L14.1713 3.81929C13.8558 5.15853 12.6673 6.16626 11.2312 6.16626C9.79531 6.16626 8.60701 5.15887 8.29127 3.81997Z" fill="#0347C8"/>
<path fill-rule="evenodd" clip-rule="evenodd" d="M8.20901 11.0533C8.20901 10.2371 7.56067 9.59658 6.78679 9.59658C6.01291 9.59658 5.36457 10.2371 5.36457 11.0533C5.36457 11.8696 6.01291 12.5101 6.78679 12.5101C7.56067 12.5101 8.20901 11.8696 8.20901 11.0533ZM9.7267 11.7638L16.2979 11.7637C16.7397 11.7637 17.0979 11.4056 17.0979 10.9637C17.0979 10.5219 16.7397 10.1637 16.2979 10.1637L9.67872 10.1638C9.30328 8.91516 8.15791 7.99658 6.78679 7.99658C5.41591 7.99658 4.27071 8.91483 3.89506 10.1631L1.72019 10.1629C1.27836 10.1629 0.920155 10.521 0.920113 10.9629C0.920073 11.4047 1.27821 11.7629 1.72004 11.7629L3.84672 11.7631C4.16221 13.1024 5.35067 14.1101 6.78679 14.1101C8.22266 14.1101 9.41096 13.1027 9.7267 11.7638Z" fill="#0347C8"/>
</svg>
