<svg width="205" height="152" viewBox="0 0 205 152" fill="none" xmlns="http://www.w3.org/2000/svg">
<path d="M49.2084 129.968V63.4343C42.8301 63.4343 37.658 68.5306 37.658 74.8214V132.13C41.4419 131.339 45.3006 130.624 49.2115 129.971L49.2084 129.968Z" fill="#29509E"/>
<path d="M74.3517 126.85V32.7112C66.7617 33.2273 60.7617 39.4415 60.7617 47.0544V128.274C65.2341 127.709 69.7678 127.229 74.3517 126.85Z" fill="#29509E"/>
<path d="M102.198 125.693C104.132 125.693 106.059 125.72 107.987 125.757V0C98.0418 0 89.9775 7.94267 89.9775 17.745V125.931C94.0283 125.784 98.1007 125.696 102.198 125.696V125.693Z" fill="#29509E"/>
<path d="M140.602 127.907V32.6592C132.535 32.6592 125.996 39.1025 125.996 47.0543V126.542C130.924 126.89 135.796 127.351 140.602 127.907Z" fill="#29509E"/>
<path d="M166.766 132.136V63.4343C160.388 63.4343 155.212 68.5306 155.212 74.8214V129.974C159.123 130.624 162.982 131.342 166.766 132.136Z" fill="#29509E"/>
<path d="M102.198 133.73C62.6218 133.73 26.6807 140.678 0 151.988H204.395C177.715 140.678 141.774 133.73 102.198 133.73Z" fill="#29509E"/>
</svg>
