<svg width="236" height="48" viewBox="0 0 236 48" fill="none" xmlns="http://www.w3.org/2000/svg">
<path d="M22.3493 0.612061V5.71519H14.2127V27.1997H8.13956V5.71519H0V0.612061H22.3493Z" fill="#29509E"/>
<path d="M34.1467 0.305855C38.1975 0.305855 41.2986 1.01667 43.4529 2.43444C45.6072 3.85558 46.6858 6.0592 46.6858 9.05105C46.6858 10.9195 46.252 12.4329 45.3815 13.5968C44.511 14.7606 43.2594 15.6763 41.6239 16.3405C42.1691 17.0046 42.7406 17.7674 43.3386 18.622C43.9365 19.48 44.5256 20.375 45.1089 21.308C45.6922 22.241 46.2579 23.2144 46.8031 24.2248C47.3482 25.2357 47.8553 26.2264 48.3214 27.1969H41.5301C41.0347 26.3274 40.5335 25.4468 40.0264 24.5485C39.5194 23.653 38.9977 22.7839 38.4642 21.9404C37.9307 21.0973 37.4032 20.2971 36.8814 19.5435C36.3597 18.7898 35.838 18.105 35.3192 17.4899H32.3207V27.1969H26.2476V0.993584C27.5724 0.739174 28.9412 0.560272 30.3539 0.456392C31.7696 0.355397 33.033 0.302979 34.1497 0.302979L34.1467 0.305855ZM34.4985 5.40947C34.0559 5.40947 33.6602 5.4239 33.3114 5.44698C32.9597 5.47295 32.6314 5.49892 32.3178 5.52489V12.7364H34.0295C36.3128 12.7364 37.9483 12.456 38.9361 11.8929C39.9209 11.3297 40.4163 10.3707 40.4163 9.01643C40.4163 7.66213 39.9151 6.78396 38.9185 6.23522C37.919 5.68648 36.4447 5.40947 34.4985 5.40947Z" fill="#29509E"/>
<path d="M62.452 27.7372C60.5558 27.7372 58.9231 27.4741 57.5457 26.9513C56.1708 26.4286 55.0335 25.698 54.1398 24.765C53.2427 23.8325 52.5833 22.7206 52.1553 21.4264C51.7272 20.1356 51.5134 18.7092 51.5134 17.1495V0.615234H57.5867V16.6527C57.5867 17.7271 57.7097 18.6423 57.9557 19.3964C58.2022 20.15 58.539 20.7651 58.967 21.2389C59.3951 21.7126 59.9139 22.0507 60.5235 22.2555C61.1332 22.4604 61.8014 22.5614 62.5281 22.5614C64.0085 22.5614 65.2072 22.1142 66.1307 21.2187C67.0508 20.3232 67.5139 18.8015 67.5139 16.6527V0.615234H73.5872V17.1495C73.5872 18.7092 73.3676 20.1414 72.9249 21.4466C72.4822 22.7523 71.8081 23.87 70.8993 24.8025C69.991 25.7355 68.8362 26.4603 67.4349 26.9715C66.0341 27.4828 64.3721 27.74 62.452 27.74V27.7372Z" fill="#29509E"/>
<path d="M86.7855 22.6339C87.6416 22.6339 88.3479 22.5642 88.9077 22.4228C89.4646 22.2814 89.9132 22.0909 90.25 21.8481C90.5872 21.6057 90.8215 21.3167 90.9508 20.9848C91.0797 20.6525 91.1441 20.2827 91.1441 19.8729C91.1441 19.0034 90.7278 18.2815 89.8985 17.7039C89.0658 17.1292 87.6416 16.5083 85.616 15.8437C84.7341 15.5378 83.8516 15.1853 82.9696 14.79C82.0872 14.3942 81.296 13.8945 80.5951 13.2938C79.8947 12.6931 79.3231 11.965 78.8833 11.1075C78.4411 10.2495 78.221 9.20736 78.221 7.97955C78.221 6.75222 78.4558 5.64609 78.9214 4.66115C79.3875 3.67669 80.0499 2.83891 80.906 2.14878C81.7616 1.45865 82.7993 0.927233 84.0215 0.5574C85.2412 0.187566 86.6156 0 88.1487 0C89.9659 0 91.537 0.190445 92.8588 0.574707C94.1835 0.958968 95.2738 1.38026 96.13 1.83955L94.3772 6.55889C93.6236 6.17463 92.7856 5.83654 91.865 5.54221C90.945 5.2474 89.8341 5.10024 88.5353 5.10024C87.0818 5.10024 86.0382 5.29982 85.4023 5.69514C84.7663 6.09095 84.4495 6.70029 84.4495 7.51739C84.4495 8.00264 84.5667 8.41288 84.8014 8.7452C85.0357 9.07704 85.3671 9.37762 85.7952 9.64598C86.2227 9.91481 86.7152 10.1572 87.2751 10.3741C87.832 10.5905 88.4504 10.8156 89.1244 11.0469C90.5257 11.5581 91.745 12.0636 92.7856 12.5633C93.8232 13.0625 94.6877 13.643 95.3734 14.3076C96.0626 14.9718 96.5756 15.7513 96.9124 16.6468C97.2496 17.5418 97.4195 18.6278 97.4195 19.9075C97.4195 22.3882 96.537 24.3148 94.7726 25.6806C93.0081 27.0498 90.3471 27.7341 86.7914 27.7341C85.5985 27.7341 84.5198 27.6649 83.5587 27.523C82.5972 27.3816 81.747 27.2114 81.0085 27.006C80.27 26.8012 79.634 26.5847 79.1005 26.3534C78.5671 26.1226 78.1214 25.9057 77.7578 25.7008L79.4695 20.9444C80.2729 21.3801 81.2667 21.7702 82.4479 22.114C83.629 22.4603 85.0767 22.631 86.7884 22.631L86.7855 22.6339Z" fill="#29509E"/>
<path d="M121.322 0.612061V5.71519H113.186V27.1997H107.113V5.71519H98.9761V0.612061H121.325H121.322Z" fill="#29509E"/>
<path d="M132.575 22.6339C133.431 22.6339 134.137 22.5642 134.697 22.4228C135.254 22.2814 135.702 22.0909 136.039 21.8481C136.377 21.6057 136.611 21.3167 136.74 20.9848C136.869 20.6525 136.933 20.2827 136.933 19.8729C136.933 19.0034 136.517 18.2815 135.688 17.7039C134.858 17.1292 133.431 16.5083 131.405 15.8437C130.523 15.5378 129.641 15.1853 128.758 14.79C127.876 14.3942 127.085 13.8945 126.384 13.2938C125.684 12.6931 125.112 11.965 124.673 11.1075C124.23 10.2495 124.01 9.20736 124.01 7.97955C124.01 6.75222 124.245 5.64609 124.711 4.66115C125.177 3.67669 125.839 2.83891 126.695 2.14878C127.551 1.45865 128.589 0.927233 129.811 0.5574C131.03 0.187566 132.405 0 133.938 0C135.755 0 137.326 0.190445 138.648 0.574707C139.973 0.958968 141.063 1.38026 141.919 1.83955L140.166 6.55889C139.413 6.17463 138.578 5.83654 137.654 5.54221C136.734 5.2474 135.623 5.10024 134.325 5.10024C132.871 5.10024 131.828 5.29982 131.192 5.69514C130.555 6.09095 130.239 6.70029 130.239 7.51739C130.239 8.00264 130.356 8.41288 130.591 8.7452C130.825 9.07704 131.156 9.37762 131.584 9.64598C132.012 9.91481 132.505 10.1572 133.064 10.3741C133.621 10.5905 134.24 10.8156 134.914 11.0469C136.315 11.5581 137.534 12.0636 138.575 12.5633C139.612 13.0625 140.477 13.643 141.163 14.3076C141.851 14.9718 142.364 15.7513 142.702 16.6468C143.039 17.5418 143.209 18.6278 143.209 19.9075C143.209 22.3882 142.326 24.3148 140.562 25.6806C138.797 27.0498 136.136 27.7341 132.581 27.7341C131.388 27.7341 130.309 27.6649 129.348 27.523C128.387 27.3816 127.536 27.2114 126.798 27.006C126.059 26.8012 125.423 26.5847 124.889 26.3534C124.356 26.1226 123.911 25.9057 123.547 25.7008L125.259 20.9444C126.062 21.3801 127.056 21.7702 128.237 22.114C129.418 22.4603 130.866 22.631 132.578 22.631L132.575 22.6339Z" fill="#29509E"/>
<path d="M167.111 0.612061V5.71519H158.975V27.1997H152.902V5.71519H144.765V0.612061H167.114H167.111Z" fill="#29509E"/>
<path d="M185.914 27.2C185.612 26.2756 185.293 25.3282 184.947 24.3553C184.601 23.3819 184.258 22.4114 183.915 21.4466H173.378C173.038 22.4171 172.695 23.3876 172.352 24.3639C172.009 25.3397 171.69 26.2843 171.397 27.2028H165.089C166.103 24.338 167.067 21.6924 167.979 19.2608C168.89 16.8316 169.782 14.5415 170.655 12.3927C171.528 10.2439 172.387 8.20523 173.231 6.27286C174.079 4.34098 174.958 2.45478 175.87 0.615234H181.626C182.511 2.45767 183.385 4.34386 184.247 6.27286C185.105 8.20523 185.973 10.2439 186.849 12.3927C187.723 14.5415 188.616 16.8316 189.528 19.2608C190.44 21.6924 191.407 24.338 192.424 27.2028H185.92L185.914 27.2ZM178.616 6.63693C178.481 7.02408 178.282 7.54973 178.021 8.21389C177.76 8.87806 177.464 9.64609 177.13 10.5185C176.795 11.3904 176.423 12.3494 176.013 13.3949C175.603 14.4405 175.184 15.5408 174.759 16.6902H182.473C182.06 15.5379 181.661 14.4347 181.274 13.3863C180.888 12.3379 180.518 11.376 180.172 10.5041C179.824 9.63166 179.518 8.86651 179.255 8.20235C178.991 7.53771 178.78 7.01831 178.619 6.63982L178.616 6.63693Z" fill="#29509E"/>
<path d="M212.707 0.612061V5.71519H204.57V27.1997H198.497V5.71519H190.36V0.612061H212.71H212.707Z" fill="#29509E"/>
<path d="M216.6 27.1997V0.612061H234.822V5.63728H222.673V10.8563H233.459V15.7656H222.673V22.1716H235.716V27.1968H216.6V27.1997Z" fill="#29509E"/>
<path d="M0 45.4866V37.2473H5.59833V38.8036H1.88174V40.5277H5.18799V42.0845H1.88174V45.4837H0V45.4866Z" fill="#9A9998"/>
<path d="M8.25098 37.2473H10.1327V45.4866H8.25098V37.2473Z" fill="#9A9998"/>
<path d="M19.0021 45.4866C18.4628 44.5425 17.8795 43.6124 17.2523 42.6938C16.625 41.7757 15.9568 40.9062 15.2504 40.092V45.4895H13.3921V37.2502H14.925C15.1918 37.5128 15.4849 37.8336 15.8044 38.2116C16.1238 38.5901 16.455 38.9974 16.7863 39.4307C17.1204 39.8636 17.4516 40.3113 17.7828 40.7735C18.1111 41.2385 18.4218 41.6834 18.712 42.1105V37.2473H20.582V45.4866H19.0021Z" fill="#9A9998"/>
<path d="M31.1628 41.3627C31.1628 42.0759 31.0515 42.6972 30.8258 43.2282C30.6001 43.7596 30.2806 44.1987 29.8673 44.5483C29.454 44.8975 28.947 45.1577 28.352 45.3337C27.757 45.5073 27.0887 45.5967 26.35 45.5967C26.013 45.5967 25.6173 45.5823 25.1688 45.5564C24.7174 45.5275 24.2749 45.4722 23.8411 45.3827V37.357C24.2749 37.2791 24.7292 37.2243 25.1981 37.1954C25.67 37.1666 26.0716 37.155 26.4116 37.155C27.1268 37.155 27.7775 37.2329 28.3608 37.3916C28.944 37.5503 29.4453 37.799 29.8614 38.1395C30.2806 38.4805 30.6001 38.9167 30.8258 39.4481C31.0515 39.9795 31.1628 40.6177 31.1628 41.3627ZM25.7228 43.9794C25.8107 43.988 25.9133 43.9938 26.0306 43.9967C26.1478 43.9996 26.2856 44.0025 26.4468 44.0025C27.3877 44.0025 28.0852 43.7683 28.5396 43.3008C28.9939 42.8329 29.2225 42.1889 29.2225 41.3627C29.2225 40.5369 29.0056 39.8463 28.5718 39.4019C28.138 38.9571 27.4492 38.7344 26.5083 38.7344C26.3794 38.7344 26.2475 38.7344 26.1097 38.7402C25.972 38.7431 25.843 38.7546 25.7228 38.769V43.9765V43.9794Z" fill="#9A9998"/>
<path d="M41.3456 40.6263C41.6827 40.066 42.0051 39.5029 42.3128 38.9426C42.6177 38.3823 42.902 37.8163 43.1599 37.2473H45.2351C44.7778 38.1337 44.303 38.9945 43.8106 39.8261C43.3211 40.6581 42.8024 41.4954 42.2542 42.336V45.4866H40.3725V42.3591C39.8244 41.5184 39.3056 40.6782 38.8102 39.8376C38.3149 38.9974 37.8401 38.1337 37.3799 37.2473H39.5635C39.8215 37.8163 40.097 38.3823 40.3959 38.9426C40.692 39.5029 41.0115 40.066 41.3485 40.6263H41.3456Z" fill="#9A9998"/>
<path d="M55.0043 41.3627C55.0043 42.0672 54.8989 42.6881 54.6851 43.2224C54.4709 43.7567 54.1809 44.2045 53.8114 44.5657C53.442 44.9263 53.0027 45.1981 52.4897 45.3799C51.9767 45.5621 51.4286 45.6545 50.8424 45.6545C50.2562 45.6545 49.7315 45.5621 49.2244 45.3799C48.7173 45.1981 48.2747 44.9263 47.8966 44.5657C47.5185 44.2045 47.2195 43.7567 47.0026 43.2224C46.7857 42.6881 46.6772 42.0672 46.6772 41.3627C46.6772 40.6581 46.7886 40.0372 47.0143 39.5029C47.24 38.9686 47.5419 38.518 47.9259 38.1539C48.3069 37.7903 48.7495 37.5157 49.2537 37.3339C49.7549 37.1521 50.2855 37.0593 50.8395 37.0593C51.3935 37.0593 51.9504 37.1521 52.4575 37.3339C52.9646 37.5157 53.4068 37.7903 53.7851 38.1539C54.1634 38.518 54.4621 38.9686 54.6793 39.5029C54.896 40.0372 55.0043 40.6581 55.0043 41.3627ZM48.6235 41.3627C48.6235 41.7671 48.6733 42.1307 48.773 42.4573C48.8725 42.7809 49.0194 43.0608 49.2068 43.295C49.3942 43.5288 49.6261 43.7077 49.9014 43.8347C50.1742 43.9621 50.4876 44.0256 50.8424 44.0256C51.1968 44.0256 51.4989 43.9621 51.7771 43.8347C52.0558 43.7077 52.2871 43.5288 52.478 43.295C52.6654 43.0608 52.8118 42.7809 52.9114 42.4573C53.0115 42.1336 53.0613 41.7671 53.0613 41.3627C53.0613 40.9582 53.0115 40.5917 52.9114 40.2623C52.8118 39.9329 52.6654 39.653 52.478 39.4193C52.2871 39.185 52.0558 39.0061 51.7771 38.8792C51.4989 38.7517 51.188 38.6882 50.8424 38.6882C50.4963 38.6882 50.1742 38.7546 49.9014 38.8849C49.629 39.0148 49.3972 39.1966 49.2068 39.4308C49.0165 39.6645 48.8725 39.9449 48.773 40.2739C48.6733 40.6033 48.6235 40.964 48.6235 41.3627Z" fill="#9A9998"/>
<path d="M61.1683 45.6545C60.5821 45.6545 60.075 45.5736 59.647 45.4116C59.2194 45.25 58.8675 45.0249 58.5922 44.733C58.3135 44.4444 58.1085 44.1006 57.9762 43.699C57.8445 43.3008 57.7771 42.8559 57.7771 42.3736V37.2502H59.6587V42.2206C59.6587 42.5525 59.6972 42.8357 59.7734 43.0695C59.8495 43.3037 59.955 43.4941 60.0867 43.6413C60.2185 43.7885 60.3801 43.8928 60.5704 43.9563C60.7579 44.0198 60.9663 44.0515 61.1918 44.0515C61.6491 44.0515 62.0215 43.913 62.3085 43.6355C62.5931 43.3585 62.7366 42.8877 62.7366 42.2206V37.2502H64.6182V42.3736C64.6182 42.8559 64.5508 43.3008 64.4131 43.7048C64.2755 44.1092 64.0671 44.456 63.786 44.7445C63.5043 45.0336 63.1471 45.2586 62.7131 45.4174C62.2792 45.5765 61.7633 45.6545 61.1683 45.6545Z" fill="#9A9998"/>
<path d="M70.2046 37.155C71.459 37.155 72.4205 37.3743 73.0887 37.8163C73.7569 38.2554 74.0912 38.9397 74.0912 39.8665C74.0912 40.4441 73.956 40.9149 73.6866 41.2761C73.4172 41.6373 73.0301 41.9201 72.523 42.1249C72.6929 42.3303 72.8691 42.5669 73.0536 42.8329C73.2381 43.0983 73.4231 43.3758 73.6017 43.6644C73.7833 43.9534 73.956 44.2535 74.1264 44.5685C74.2962 44.8802 74.4515 45.1894 74.5984 45.49H72.4937C72.3415 45.2212 72.1858 44.947 72.0276 44.6695C71.8695 44.3925 71.7084 44.1237 71.5439 43.8611C71.3799 43.598 71.2159 43.3527 71.0544 43.1185C70.8933 42.8848 70.7322 42.6737 70.5712 42.4832H69.6418V45.49H67.7603V37.3714C68.1702 37.2935 68.5954 37.2358 69.0322 37.2041C69.472 37.1723 69.8615 37.155 70.2075 37.155H70.2046ZM70.313 38.7344C70.1753 38.7344 70.0552 38.7373 69.9435 38.7459C69.8351 38.7546 69.7326 38.7633 69.636 38.769V41.0044H70.1665C70.8728 41.0044 71.3799 40.9178 71.6874 40.7418C71.9954 40.5658 72.1448 40.271 72.1448 39.8492C72.1448 39.4279 71.9895 39.159 71.6816 38.9888C71.3711 38.8186 70.9167 38.7315 70.313 38.7315V38.7344Z" fill="#9A9998"/>
<path d="M88.6758 41.3627C88.6758 42.0759 88.5645 42.6972 88.339 43.2282C88.1131 43.7596 87.7938 44.1987 87.3804 44.5483C86.967 44.8975 86.4604 45.1577 85.8649 45.3337C85.2699 45.5073 84.6017 45.5967 83.8633 45.5967C83.526 45.5967 83.1306 45.5823 82.6821 45.5564C82.2306 45.5275 81.7879 45.4722 81.354 45.3827V37.357C81.7879 37.2791 82.2423 37.2243 82.7114 37.1954C83.1834 37.1666 83.5846 37.155 83.9248 37.155C84.6398 37.155 85.2904 37.2329 85.8737 37.3916C86.457 37.5503 86.9582 37.799 87.3746 38.1395C87.7938 38.4805 88.1131 38.9167 88.339 39.4481C88.5645 39.9795 88.6758 40.6177 88.6758 41.3627ZM83.2361 43.9794C83.3239 43.988 83.4264 43.9938 83.5436 43.9967C83.6612 43.9996 83.7988 44.0025 83.9599 44.0025C84.9009 44.0025 85.5984 43.7683 86.0528 43.3008C86.5072 42.8329 86.7357 42.1889 86.7357 41.3627C86.7357 40.5369 86.519 39.8463 86.085 39.4019C85.6511 38.9571 84.9624 38.7344 84.0214 38.7344C83.8925 38.7344 83.7608 38.7344 83.6226 38.7402C83.485 38.7431 83.3561 38.7546 83.2361 38.769V43.9765V43.9794Z" fill="#9A9998"/>
<path d="M94.0225 37.155C95.2773 37.155 96.2384 37.3743 96.9066 37.8163C97.5753 38.2554 97.9091 38.9397 97.9091 39.8665C97.9091 40.4441 97.7744 40.9149 97.5045 41.2761C97.2351 41.6373 96.848 41.9201 96.3409 42.1249C96.5112 42.3303 96.6869 42.5669 96.8714 42.8329C97.0564 43.0983 97.2409 43.3758 97.4196 43.6644C97.6016 43.9534 97.7744 44.2535 97.9443 44.5685C98.1146 44.8802 98.2698 45.1894 98.4162 45.49H96.3116C96.1593 45.2212 96.0041 44.947 95.846 44.6695C95.6873 44.3925 95.5263 44.1237 95.3623 43.8611C95.1978 43.598 95.0338 43.3527 94.8727 43.1185C94.7117 42.8848 94.5501 42.6737 94.389 42.4832H93.4597V45.49H91.5781V37.3714C91.9886 37.2935 92.4132 37.2358 92.8501 37.2041C93.2898 37.1723 93.6798 37.155 94.0254 37.155H94.0225ZM94.1308 38.7344C93.9932 38.7344 93.8731 38.7373 93.7618 38.7459C93.6535 38.7546 93.5505 38.7633 93.4538 38.769V41.0044H93.9844C94.6907 41.0044 95.1978 40.9178 95.5058 40.7418C95.8133 40.5658 95.9631 40.271 95.9631 39.8492C95.9631 39.4279 95.8074 39.159 95.4999 38.9888C95.189 38.8186 94.7351 38.7315 94.1308 38.7315V38.7344Z" fill="#9A9998"/>
<path d="M100.948 45.4866V37.2473H106.593V38.8036H102.83V40.4209H106.172V41.9431H102.83V43.9274H106.872V45.4837H100.948V45.4866Z" fill="#9A9998"/>
<path d="M115.196 45.4871C115.102 45.2009 115.003 44.9061 114.897 44.606C114.792 44.3054 114.683 44.0054 114.578 43.7048H111.312C111.207 44.0054 111.102 44.3054 110.996 44.6089C110.891 44.9119 110.791 45.2038 110.7 45.49H108.745C109.059 44.6032 109.358 43.7827 109.642 43.0291C109.926 42.2755 110.202 41.568 110.471 40.9005C110.741 40.2334 111.008 39.6039 111.271 39.0032C111.533 38.4054 111.805 37.8192 112.09 37.2502H113.874C114.15 37.8221 114.42 38.4054 114.686 39.0032C114.953 39.601 115.223 40.2334 115.492 40.9005C115.762 41.5651 116.041 42.2755 116.322 43.0291C116.603 43.7827 116.902 44.6032 117.219 45.49H115.202L115.196 45.4871ZM112.936 39.1158C112.895 39.2341 112.834 39.399 112.752 39.6039C112.67 39.8088 112.579 40.0488 112.477 40.3171C112.374 40.586 112.256 40.8832 112.131 41.2097C112.005 41.5358 111.872 41.8739 111.741 42.2322H114.132C114.003 41.8739 113.88 41.5329 113.76 41.2068C113.64 40.8803 113.525 40.5831 113.417 40.3142C113.309 40.0459 113.215 39.8059 113.133 39.601C113.051 39.3961 112.986 39.2341 112.936 39.1158Z" fill="#9A9998"/>
<path d="M121.832 37.2473C121.979 37.5099 122.146 37.8307 122.334 38.2173C122.521 38.6045 122.72 39.0176 122.926 39.4654C123.131 39.9126 123.336 40.369 123.535 40.837C123.737 41.3049 123.925 41.744 124.104 42.1566C124.282 41.744 124.47 41.3049 124.672 40.837C124.875 40.369 125.077 39.9126 125.282 39.4654C125.487 39.0176 125.687 38.6016 125.874 38.2173C126.064 37.8336 126.232 37.5099 126.375 37.2473H128.087C128.166 37.7932 128.242 38.4054 128.31 39.084C128.377 39.7626 128.439 40.4671 128.492 41.201C128.544 41.9344 128.591 42.6678 128.635 43.4075C128.679 44.1438 128.717 44.8368 128.749 45.4866H126.915C126.891 44.6868 126.859 43.8144 126.818 42.8703C126.777 41.9258 126.719 40.9755 126.636 40.017C126.49 40.3488 126.329 40.7186 126.153 41.1231C125.977 41.5271 125.801 41.9316 125.625 42.336C125.449 42.74 125.285 43.1271 125.124 43.4941C124.962 43.8634 124.825 44.1784 124.713 44.4386H123.398C123.283 44.1756 123.148 43.8606 122.987 43.4941C122.826 43.1243 122.659 42.74 122.486 42.336C122.313 41.9316 122.137 41.5271 121.958 41.1231C121.78 40.7186 121.618 40.3488 121.475 40.017C121.393 40.9755 121.334 41.9258 121.293 42.8703C121.252 43.8144 121.22 44.6839 121.196 45.4866H119.362C119.394 44.8368 119.432 44.1438 119.476 43.4075C119.52 42.6707 119.567 41.9344 119.619 41.201C119.672 40.4671 119.731 39.7626 119.801 39.084C119.868 38.4054 119.945 37.7932 120.024 37.2473H121.821H121.832Z" fill="#9A9998"/>
<path d="M141.028 37.2473H142.91V45.4866H141.028V41.9922H137.865V45.4866H135.983V37.2473H137.865V40.3979H141.028V37.2473Z" fill="#9A9998"/>
<path d="M154.13 41.3627C154.13 42.0672 154.024 42.6881 153.81 43.2224C153.597 43.7567 153.306 44.2045 152.937 44.5657C152.568 44.9263 152.128 45.1981 151.615 45.3799C151.105 45.5621 150.554 45.6545 149.968 45.6545C149.381 45.6545 148.857 45.5621 148.35 45.3799C147.842 45.1981 147.4 44.9263 147.022 44.5657C146.644 44.2045 146.348 43.7567 146.128 43.2224C145.908 42.6881 145.803 42.0672 145.803 41.3627C145.803 40.6581 145.914 40.0372 146.14 39.5029C146.366 38.9686 146.667 38.518 147.051 38.1539C147.432 37.7903 147.875 37.5157 148.379 37.3339C148.88 37.1521 149.411 37.0593 149.965 37.0593C150.519 37.0593 151.076 37.1521 151.583 37.3339C152.09 37.5157 152.533 37.7903 152.91 38.1539C153.289 38.518 153.585 38.9686 153.804 39.5029C154.024 40.0372 154.13 40.6581 154.13 41.3627ZM147.749 41.3627C147.749 41.7671 147.799 42.1307 147.898 42.4573C147.998 42.7809 148.145 43.0608 148.332 43.295C148.52 43.5288 148.751 43.7077 149.027 43.8347C149.299 43.9621 149.613 44.0256 149.968 44.0256C150.322 44.0256 150.624 43.9621 150.903 43.8347C151.181 43.7077 151.413 43.5288 151.603 43.295C151.791 43.0608 151.938 42.7809 152.037 42.4573C152.137 42.1336 152.186 41.7671 152.186 41.3627C152.186 40.9582 152.137 40.5917 152.037 40.2623C151.938 39.9329 151.791 39.653 151.603 39.4193C151.416 39.185 151.181 39.0061 150.903 38.8792C150.624 38.7517 150.314 38.6882 149.968 38.6882C149.622 38.6882 149.299 38.7546 149.027 38.8849C148.754 39.0148 148.523 39.1966 148.332 39.4308C148.142 39.6645 147.998 39.9449 147.898 40.2739C147.799 40.6033 147.749 40.964 147.749 41.3627Z" fill="#9A9998"/>
<path d="M159.244 37.2473C159.391 37.5099 159.558 37.8307 159.745 38.2173C159.933 38.6045 160.132 39.0176 160.337 39.4654C160.543 39.9126 160.748 40.369 160.947 40.837C161.15 41.3049 161.337 41.744 161.516 42.1566C161.695 41.744 161.882 41.3049 162.084 40.837C162.287 40.369 162.489 39.9126 162.694 39.4654C162.899 39.0176 163.099 38.6016 163.286 38.2173C163.477 37.8336 163.644 37.5099 163.787 37.2473H165.499C165.578 37.7932 165.655 38.4054 165.722 39.084C165.789 39.7626 165.851 40.4671 165.904 41.201C165.956 41.9344 166.003 42.6678 166.047 43.4075C166.091 44.1438 166.129 44.8368 166.161 45.4866H164.327C164.303 44.6868 164.271 43.8144 164.23 42.8703C164.189 41.9258 164.13 40.9755 164.048 40.017C163.901 40.3488 163.74 40.7186 163.565 41.1231C163.389 41.5271 163.21 41.9316 163.037 42.336C162.864 42.74 162.697 43.1271 162.536 43.4941C162.375 43.8634 162.237 44.1784 162.125 44.4386H160.809C160.695 44.1756 160.561 43.8606 160.399 43.4941C160.238 43.1243 160.071 42.74 159.898 42.336C159.725 41.9316 159.549 41.5271 159.373 41.1231C159.197 40.7186 159.033 40.3488 158.89 40.017C158.81 40.9755 158.749 41.9258 158.708 42.8703C158.667 43.8144 158.635 44.6839 158.611 45.4866H156.776C156.809 44.8368 156.847 44.1438 156.891 43.4075C156.935 42.6707 156.984 41.9344 157.034 41.201C157.087 40.4671 157.146 39.7626 157.216 39.084C157.283 38.4054 157.36 37.7932 157.439 37.2473H159.235H159.244Z" fill="#9A9998"/>
<path d="M169.175 45.4866V37.2473H174.82V38.8036H171.056V40.4209H174.398V41.9431H171.056V43.9274H175.098V45.4837H169.175V45.4866Z" fill="#9A9998"/>
<path d="M179.393 43.6787C179.407 43.8692 179.419 44.0053 179.422 44.0832C179.425 44.1611 179.428 44.2303 179.428 44.2852C179.428 44.5223 179.404 44.7733 179.36 45.0393C179.316 45.3047 179.255 45.5736 179.172 45.8419C179.093 46.1108 178.991 46.382 178.871 46.6504C178.751 46.9192 178.613 47.176 178.46 47.4247L177.048 47.0808C177.232 46.558 177.361 46.067 177.434 45.6082C177.508 45.1489 177.543 44.7675 177.543 44.4674C177.543 44.4179 177.543 44.3573 177.537 44.2823C177.534 44.2072 177.529 44.1293 177.526 44.0514C177.523 43.9735 177.517 43.8956 177.514 43.8259C177.511 43.7537 177.508 43.7076 177.508 43.6845H179.39L179.393 43.6787Z" fill="#9A9998"/>
<path d="M192.532 37.2473V38.8296H190.012V45.4866H188.13V38.8296H185.609V37.2473H192.535H192.532Z" fill="#9A9998"/>
<path d="M202.75 41.3627C202.75 42.0672 202.645 42.6881 202.431 43.2224C202.217 43.7567 201.927 44.2045 201.557 44.5657C201.188 44.9263 200.746 45.1981 200.235 45.3799C199.725 45.5621 199.174 45.6545 198.588 45.6545C198.002 45.6545 197.477 45.5621 196.97 45.3799C196.463 45.1981 196.02 44.9263 195.643 44.5657C195.264 44.2045 194.969 43.7567 194.748 43.2224C194.532 42.6881 194.423 42.0672 194.423 41.3627C194.423 40.6581 194.535 40.0372 194.76 39.5029C194.986 38.9686 195.288 38.518 195.672 38.1539C196.053 37.7903 196.495 37.5157 196.999 37.3339C197.501 37.1521 198.031 37.0593 198.585 37.0593C199.139 37.0593 199.696 37.1521 200.203 37.3339C200.71 37.5157 201.153 37.7903 201.531 38.1539C201.909 38.518 202.205 38.9686 202.422 39.5029C202.639 40.0372 202.747 40.6581 202.747 41.3627H202.75ZM196.369 41.3627C196.369 41.7671 196.419 42.1307 196.519 42.4573C196.618 42.7809 196.765 43.0608 196.953 43.295C197.14 43.5288 197.372 43.7077 197.647 43.8347C197.92 43.9621 198.233 44.0256 198.588 44.0256C198.943 44.0256 199.245 43.9621 199.523 43.8347C199.802 43.7077 200.033 43.5288 200.224 43.295C200.411 43.0608 200.558 42.7809 200.658 42.4573C200.757 42.1336 200.807 41.7671 200.807 41.3627C200.807 40.9582 200.757 40.5917 200.658 40.2623C200.558 39.9329 200.411 39.653 200.224 39.4193C200.036 39.185 199.802 39.0061 199.523 38.8792C199.245 38.7517 198.934 38.6882 198.588 38.6882C198.242 38.6882 197.92 38.7546 197.647 38.8849C197.375 39.0148 197.143 39.1966 196.953 39.4308C196.762 39.6645 196.618 39.9449 196.519 40.2739C196.419 40.6033 196.369 40.964 196.369 41.3627Z" fill="#9A9998"/>
<path d="M212.971 41.3627C212.971 42.0759 212.859 42.6972 212.634 43.2282C212.408 43.7596 212.089 44.1987 211.675 44.5483C211.262 44.8975 210.755 45.1577 210.16 45.3337C209.565 45.5073 208.897 45.5967 208.158 45.5967C207.821 45.5967 207.426 45.5823 206.977 45.5564C206.526 45.5275 206.083 45.4722 205.649 45.3827V37.357C206.083 37.2791 206.537 37.2243 207.006 37.1954C207.478 37.1666 207.879 37.155 208.22 37.155C208.935 37.155 209.585 37.2329 210.169 37.3916C210.752 37.5503 211.253 37.799 211.67 38.1395C212.089 38.4805 212.408 38.9167 212.634 39.4481C212.859 39.9795 212.971 40.6177 212.971 41.3627ZM207.531 43.9794C207.619 43.988 207.721 43.9938 207.838 43.9967C207.956 43.9996 208.094 44.0025 208.255 44.0025C209.196 44.0025 209.893 43.7683 210.348 43.3008C210.802 42.8329 211.031 42.1889 211.031 41.3627C211.031 40.5369 210.813 39.8463 210.38 39.4019C209.946 38.9571 209.257 38.7344 208.316 38.7344C208.187 38.7344 208.056 38.7344 207.918 38.7402C207.78 38.7431 207.651 38.7546 207.531 38.769V43.9765V43.9794Z" fill="#9A9998"/>
<path d="M221.175 45.4871C221.081 45.2009 220.981 44.9061 220.876 44.606C220.77 44.3054 220.662 44.0054 220.557 43.7048H217.291C217.186 44.0054 217.08 44.3054 216.974 44.6089C216.869 44.9119 216.769 45.2038 216.679 45.49H214.723C215.037 44.6032 215.336 43.7827 215.618 43.0291C215.899 42.2755 216.177 41.568 216.447 40.9005C216.717 40.2334 216.983 39.6039 217.247 39.0032C217.508 38.4054 217.781 37.8192 218.065 37.2502H219.85C220.126 37.8221 220.395 38.4054 220.662 39.0032C220.928 39.601 221.198 40.2334 221.468 40.9005C221.738 41.5651 222.016 42.2755 222.298 43.0291C222.579 43.7827 222.878 44.6032 223.194 45.49H221.178L221.175 45.4871ZM218.915 39.1158C218.874 39.2341 218.813 39.399 218.73 39.6039C218.648 39.8088 218.557 40.0488 218.455 40.3171C218.352 40.586 218.235 40.8832 218.109 41.2097C217.983 41.5358 217.851 41.8739 217.719 42.2322H220.111C219.982 41.8739 219.859 41.5329 219.738 41.2068C219.618 40.8803 219.504 40.5831 219.396 40.3142C219.287 40.0459 219.193 39.8059 219.111 39.601C219.029 39.3961 218.965 39.2341 218.915 39.1158Z" fill="#9A9998"/>
<path d="M227.447 40.6263C227.784 40.066 228.107 39.5029 228.415 38.9426C228.719 38.3823 229.001 37.8163 229.259 37.2473H231.334C230.877 38.1337 230.402 38.9945 229.909 39.8261C229.42 40.6581 228.901 41.4954 228.353 42.336V45.4866H226.471V42.3591C225.923 41.5184 225.404 40.6782 224.909 39.8376C224.413 38.9974 223.939 38.1337 223.479 37.2473H225.662C225.92 37.8163 226.196 38.3823 226.495 38.9426C226.791 39.5029 227.11 40.066 227.447 40.6263Z" fill="#9A9998"/>
<path d="M235.701 44.5483C235.701 44.8974 235.587 45.1663 235.358 45.3567C235.129 45.5477 234.869 45.6429 234.581 45.6429C234.294 45.6429 234.033 45.5477 233.805 45.3567C233.576 45.1663 233.461 44.8974 233.461 44.5483C233.461 44.1986 233.576 43.9303 233.805 43.7393C234.033 43.5489 234.294 43.4537 234.581 43.4537C234.869 43.4537 235.129 43.5489 235.358 43.7393C235.587 43.9303 235.701 44.1986 235.701 44.5483ZM235.543 39.3754C235.543 40.017 235.519 40.6177 235.469 41.1722C235.42 41.7267 235.358 42.2898 235.276 42.8617H233.901C233.819 42.2898 233.755 41.7296 233.702 41.1722C233.649 40.6177 233.623 40.0199 233.623 39.3754V37.2473H235.54V39.3754H235.543Z" fill="#9A9998"/>
</svg>
